HIERARCHY
ROOT Hips
{
	OFFSET 0.000000 0.000000 0.000000
	CHANNELS 6 Xposition Yposition Zposition Xrotation Yrotation Zrotation
	JOINT LeftUpLeg_virtual
	{
		OFFSET 0.000000 0.000000 0.000000
		CHANNELS 3 Xrotation Yrotation Zrotation
		JOINT LeftUpLeg
		{
			OFFSET 13.026900 -6.336304 -1.092800
			CHANNELS 3 Xrotation Yrotation Zrotation
			JOINT LeftLeg
			{
				OFFSET 0.524474 -46.096886 9.782700
				CHANNELS 3 Xrotation Yrotation Zrotation
				JOINT LeftFoot
				{
					OFFSET -0.524474 -53.427422 -12.948200
					CHANNELS 3 Xrotation Yrotation Zrotation
					JOINT LeftToeBase
					{
						OFFSET 0.192200 -14.009700 16.364100
						CHANNELS 3 Xrotation Yrotation Zrotation
						JOINT LeftToe_End
						{
							OFFSET -1.784700 -0.561700 9.474800
							CHANNELS 3 Xrotation Yrotation Zrotation
							End Site
							{
								OFFSET 0 0 0
							}
						}
					}
				}
			}
		}
	}
	JOINT RightUpLeg_virtual
	{
		OFFSET 0.000000 0.000000 0.000000
		CHANNELS 3 Xrotation Yrotation Zrotation
		JOINT RightUpLeg
		{
			OFFSET -12.883000 -6.336304 -1.092800
			CHANNELS 3 Xrotation Yrotation Zrotation
			JOINT RightLeg
			{
				OFFSET -0.524587 -46.096825 9.782800
				CHANNELS 3 Xrotation Yrotation Zrotation
				JOINT RightFoot
				{
					OFFSET 0.524587 -53.427383 -12.948300
					CHANNELS 3 Xrotation Yrotation Zrotation
					JOINT RightToeBase
					{
						OFFSET -0.192200 -14.009700 16.364100
						CHANNELS 3 Xrotation Yrotation Zrotation
						JOINT RightToe_End
						{
							OFFSET 1.784700 -0.561700 9.474800
							CHANNELS 3 Xrotation Yrotation Zrotation
							End Site
							{
								OFFSET 0 0 0
							}
						}
					}
				}
			}
		}
	}
	JOINT Spine_virtual
	{
		OFFSET 0.000000 0.000000 0.000000
		CHANNELS 3 Xrotation Yrotation Zrotation
		JOINT Spine
		{
			OFFSET 0.072000 7.257294 -0.789700
			CHANNELS 3 Xrotation Yrotation Zrotation
			JOINT Spine1
			{
				OFFSET 0.000000 12.508769 -0.658067
				CHANNELS 3 Xrotation Yrotation Zrotation
				JOINT Spine1_split
				{
					OFFSET 0.000000 12.508769 -0.658067
					CHANNELS 3 Xrotation Yrotation Zrotation
					JOINT Spine2
					{
						OFFSET 0.000000 12.508769 -0.658067
						CHANNELS 3 Xrotation Yrotation Zrotation
						JOINT Neck_virtual
						{
							OFFSET 0.000000 0.000000 0.000000
							CHANNELS 3 Xrotation Yrotation Zrotation
							JOINT Neck
							{
								OFFSET 0.000000 14.033295 7.520400
								CHANNELS 3 Xrotation Yrotation Zrotation
								JOINT Head
								{
									OFFSET 0.000000 8.198502 5.703100
									CHANNELS 3 Xrotation Yrotation Zrotation
									JOINT HeadTop_End
									{
										OFFSET 0.000000 17.760803 13.332701
										CHANNELS 3 Xrotation Yrotation Zrotation
										End Site
										{
											OFFSET 0 0 0
										}
									}
								}
							}
						}
						JOINT LeftShoulder_virtual
						{
							OFFSET 0.000000 0.000000 0.000000
							CHANNELS 3 Xrotation Yrotation Zrotation
							JOINT LeftShoulder
							{
								OFFSET 6.292450 5.785301 -0.669000
								CHANNELS 3 Xrotation Yrotation Zrotation
								JOINT LeftShoulder_split
								{
									OFFSET 6.292450 5.785301 -0.669000
									CHANNELS 3 Xrotation Yrotation Zrotation
									JOINT LeftArm
									{
										OFFSET 13.907140 -6.093903 1.965100
										CHANNELS 3 Xrotation Yrotation Zrotation
										JOINT LeftForeArm
										{
											OFFSET 34.140198 0.000000 0.000000
											CHANNELS 3 Xrotation Yrotation Zrotation
											JOINT LeftHand
											{
												OFFSET 40.960209 0.000000 0.000000
												CHANNELS 3 Xrotation Yrotation Zrotation
												End Site
												{
													OFFSET 0 0 0
												}
											}
										}
									}
								}
							}
						}
						JOINT RightShoulder_virtual
						{
							OFFSET 0.000000 0.000000 0.000000
							CHANNELS 3 Xrotation Yrotation Zrotation
							JOINT RightShoulder
							{
								OFFSET -6.292450 5.785301 -0.669000
								CHANNELS 3 Xrotation Yrotation Zrotation
								JOINT RightShoulder_split
								{
									OFFSET -6.292450 5.785301 -0.669000
									CHANNELS 3 Xrotation Yrotation Zrotation
									JOINT RightArm
									{
										OFFSET -13.907140 -6.093903 1.965100
										CHANNELS 3 Xrotation Yrotation Zrotation
										JOINT RightForeArm
										{
											OFFSET -34.140198 0.000000 0.000000
											CHANNELS 3 Xrotation Yrotation Zrotation
											JOINT RightHand
											{
												OFFSET -40.960209 0.000000 0.000000
												CHANNELS 3 Xrotation Yrotation Zrotation
												End Site
												{
													OFFSET 0 0 0
												}
											}
										}
									}
								}
							}
						}
					}
				}
			}
		}
	}
}
MOTION
Frames: 7
Frame Time: 0.03333333
-4.514652 99.123596 -6.675488 0.000000 0.000000 0.000000 7.952471 -53.151043 9.420261 -35.979316 17.941119 27.731017 37.091475 -9.851653 -4.413177 -4.778073 2.271628 -12.514727 -0.685381 -1.100429 -1.976865 0.000000 0.000000 0.000000 7.279606 -51.654180 8.963565 -30.365474 -4.342668 -23.287955 44.088407 13.628443 -3.431283 -15.336336 -7.244800 29.049922 4.391736 6.063920 -8.853430 0.000000 0.000000 0.000000 4.090828 -44.143724 6.728339 8.264756 4.069120 -5.575997 9.942922 -3.583072 -4.175098 0.266492 -0.517238 0.072909 0.000000 0.000000 0.000000 14.015997 -0.624545 -4.535079 -14.311717 25.155788 7.178379 -20.296715 38.472936 16.949910 0.000000 0.000000 0.000000 13.738335 -3.216869 -4.944510 -0.377753 -0.250261 -2.500376 -2.694722 -4.559778 -0.532806 -27.684370 -8.046545 -32.352922 14.966087 -31.405657 10.145782 0.000000 0.000000 0.000000 15.421958 -1.734374 -4.204132 -9.740680 3.667501 -0.110780 5.079198 3.613734 2.899902 -42.258421 -19.760381 35.388433 174.540703 69.146745 -173.931382 0.000000 0.000000 0.000000 
-4.516000 98.973648 -6.598930 0.000000 0.000000 0.000000 7.820083 -53.281346 9.414904 -35.738613 18.154083 27.754216 37.347000 -10.211649 -4.322536 -4.899021 2.241210 -12.520986 -1.061905 -1.124179 -1.874033 0.000000 0.000000 0.000000 7.202738 -51.730903 8.953932 -30.441945 -4.439289 -23.339820 44.412745 13.521484 -3.377421 -15.216422 -7.458133 28.582991 3.981900 6.087161 -8.700791 0.000000 0.000000 0.000000 3.331696 -44.278020 6.443315 7.970166 3.979524 -5.613602 9.714778 -3.551560 -4.182115 0.187318 -0.396131 0.081297 0.000000 0.000000 0.000000 13.664037 -0.606413 -4.599767 -14.083386 25.139563 7.105622 -20.936166 39.184515 16.872825 0.000000 0.000000 0.000000 13.602544 -3.214751 -4.960322 -0.337760 -0.165624 -2.810267 -2.812921 -4.128793 -0.646863 -28.077900 -8.963466 -32.911953 15.524405 -32.025931 10.485442 0.000000 0.000000 0.000000 15.196691 -1.748401 -4.248703 -9.824076 3.798868 0.410803 5.662601 4.496188 4.302901 -41.310019 -20.140896 36.614117 175.094222 71.022308 -174.354116 0.000000 0.000000 0.000000 
-4.549289 98.980164 -6.422523 0.000000 0.000000 0.000000 7.761515 -53.522506 9.369816 -35.283979 18.536094 27.772992 37.456423 -10.559795 -4.200696 -5.181670 2.338027 -12.239737 -1.585968 -1.141591 -1.803262 0.000000 0.000000 0.000000 7.167645 -51.894705 8.867045 -30.221459 -4.837202 -23.362592 44.247325 13.413840 -3.307240 -15.027289 -7.597867 28.204998 3.529835 6.094268 -8.617121 0.000000 0.000000 0.000000 2.949507 -44.148786 6.205522 7.277051 3.854201 -5.648231 9.174827 -3.531793 -4.248059 0.169963 -0.324427 0.061236 0.000000 0.000000 0.000000 13.012685 -0.573217 -4.694585 -14.201260 25.282396 6.883276 -21.648011 40.164029 16.943491 0.000000 0.000000 0.000000 13.059914 -3.188517 -5.010340 -0.334785 -0.075044 -3.591283 -3.232239 -3.485674 -0.723337 -28.666355 -9.857647 -33.895951 15.732861 -32.594223 10.416743 0.000000 0.000000 0.000000 14.569307 -1.744790 -4.296411 -9.961315 3.696383 1.385067 6.048215 4.828432 4.004813 -40.704232 -20.110467 38.857445 174.522344 74.467544 -173.701519 0.000000 0.000000 0.000000 
-4.630418 99.241943 -6.260433 0.000000 0.000000 0.000000 7.885437 -53.726869 9.324854 -34.742058 18.959403 27.793238 37.158695 -10.816479 -4.100804 -5.471606 2.529496 -11.813114 -1.894450 -1.144282 -1.832952 0.000000 0.000000 0.000000 7.272216 -52.092074 8.784335 -29.763215 -5.422925 -23.322086 43.374713 13.341776 -3.216045 -14.723463 -7.555150 28.047631 3.168323 6.093343 -8.627044 0.000000 0.000000 0.000000 3.210268 -43.844699 6.160369 6.323731 3.726530 -5.628898 8.452324 -3.522130 -4.360870 0.166348 -0.291595 0.047409 0.000000 0.000000 0.000000 12.199695 -0.521667 -4.798954 -14.731844 25.585713 6.569963 -22.595774 41.543970 17.125748 0.000000 0.000000 0.000000 12.254225 -3.146403 -5.111136 -0.372406 -0.078593 -4.642324 -3.912569 -2.654304 -0.666502 -29.207699 -10.363478 -35.052944 15.713564 -33.230725 10.067197 0.000000 0.000000 0.000000 13.675468 -1.733716 -4.355700 -10.084036 3.373481 2.579723 6.148245 4.284021 2.647669 -40.776769 -19.687761 41.500725 172.286126 78.601585 -171.466462 0.000000 0.000000 0.000000 
-4.726315 99.833466 -6.170483 0.000000 0.000000 0.000000 8.203052 -53.853323 9.300610 -34.289749 19.226031 27.837913 36.353402 -11.075684 -4.032416 -5.357846 2.679692 -11.587804 -1.834993 -1.140366 -1.940025 0.000000 0.000000 0.000000 7.606552 -52.262558 8.798602 -29.108320 -6.065379 -23.152026 41.685020 13.354754 -3.110610 -14.224239 -7.260043 28.180655 2.879725 6.100338 -8.733225 0.000000 0.000000 0.000000 4.128182 -43.518137 6.338783 5.273575 3.637655 -5.515576 7.668935 -3.527717 -4.474921 0.116656 -0.316507 0.061857 0.000000 0.000000 0.000000 11.395460 -0.471965 -4.894659 -15.725940 26.032730 6.204026 -24.211134 43.257104 17.494737 0.000000 0.000000 0.000000 11.380300 -3.102729 -5.214245 -0.439492 -0.275631 -5.530376 -4.605230 -1.918464 -0.766347 -29.526406 -10.162358 -36.037946 15.694970 -34.057055 9.706187 0.000000 0.000000 0.000000 12.699652 -1.724213 -4.404285 -10.185106 2.945088 3.677792 5.914880 3.186947 1.517461 -41.298776 -19.050243 43.992016 166.932282 82.420344 -166.197518 0.000000 0.000000 0.000000 
-4.797897 100.741875 -6.139587 0.000000 0.000000 0.000000 8.668552 -53.870467 9.322348 -33.971045 19.264388 27.878964 35.047835 -11.350293 -4.025361 -4.712868 2.691930 -11.565149 -1.547880 -1.159980 -2.009087 0.000000 0.000000 0.000000 8.152378 -52.363741 8.894327 -28.398854 -6.635201 -22.806736 39.291787 13.395955 -2.964335 -13.499809 -6.786185 28.485360 2.691578 6.110662 -8.892642 0.000000 0.000000 0.000000 5.414266 -43.374495 6.660230 4.367076 3.597616 -5.280311 6.992560 -3.534153 -4.568432 0.064539 -0.388280 0.101478 0.000000 0.000000 0.000000 10.819938 -0.449288 -4.959684 -17.024624 26.621494 5.790446 -26.913722 45.395251 18.143981 0.000000 0.000000 0.000000 10.666500 -3.086127 -5.282544 -0.525038 -0.679028 -5.870230 -4.934137 -1.252703 -0.946229 -29.765882 -9.290023 -36.770320 16.015569 -35.223156 9.649297 0.000000 0.000000 0.000000 11.877851 -1.744950 -4.439684 -10.274095 2.580900 4.396424 5.809490 2.199722 0.789908 -41.972954 -18.418150 45.769511 157.499572 84.890591 -156.906616 0.000000 0.000000 0.000000 
-4.776444 101.796921 -6.284454 0.000000 0.000000 0.000000 9.097100 -53.740331 9.275615 -33.808190 19.142396 27.974659 33.521640 -11.617256 -4.099432 -3.755707 2.538622 -11.585517 -1.272664 -1.209072 -1.958259 0.000000 0.000000 0.000000 8.722977 -52.425243 8.964398 -27.786002 -7.062958 -22.318779 36.746537 13.398727 -2.799151 -12.585989 -6.256671 28.640180 2.762242 6.116041 -9.060553 0.000000 0.000000 0.000000 6.734269 -43.428242 7.003853 3.726238 3.619406 -4.909827 6.574608 -3.541433 -4.613278 0.006756 -0.456387 0.140742 0.000000 0.000000 0.000000 10.575008 -0.471373 -4.979042 -18.451927 27.303169 5.337905 -30.760522 47.787582 19.156319 0.000000 0.000000 0.000000 10.256057 -3.088503 -5.283759 -0.610973 -1.260029 -5.505241 -5.095139 -0.841786 -1.326586 -29.994813 -7.924900 -37.120545 16.897381 -36.803593 10.147896 0.000000 0.000000 0.000000 11.383297 -1.813620 -4.455450 -10.331004 2.497040 4.607815 5.836936 1.460627 0.892166 -42.292429 -18.014253 46.541582 150.650190 85.633900 -150.184863 0.000000 0.000000 0.000000 
